<svg width="30" height="30" viewBox="0 0 30 30" fill="none" xmlns="http://www.w3.org/2000/svg">
<g clip-path="url(#clip0_113_544)">
<path d="M11.1902 29.7122L12.9513 25.739C13.5039 24.4925 14.0977 23.2643 14.732 22.0562C14.7541 22.0145 14.7761 21.9725 14.7981 21.9302C15.8815 19.8671 18.4707 19.0574 20.5735 20.1239C20.601 20.138 20.6286 20.1518 20.6558 20.1656C21.9244 20.8091 23.1688 21.4919 24.3917 22.2152C26.0139 23.1746 28.1163 24.4184 28.1163 24.4184C26.9882 26.0315 24.8111 26.5688 23.038 25.6718L19.6597 23.963C19.0609 23.66 18.3351 24.0212 18.2313 24.6737L22.0811 26.621C21.2031 28.2878 19.1126 28.9418 17.4118 28.0814L16.2568 27.4973C15.482 29.48 13.2133 30.4715 11.1902 29.7122Z" fill="#FF0084"/>
<path d="M0.0453541 15.3315L4.44556 15.7452C5.82586 15.8751 7.20127 16.0488 8.56995 16.2669C8.61709 16.2744 8.66484 16.2819 8.7126 16.2897C11.0495 16.662 12.6356 18.825 12.2502 21.1143C12.2449 21.1443 12.24 21.1743 12.2352 21.204C12.0028 22.5852 11.7245 23.9562 11.4004 25.3194C10.9706 27.1278 10.4131 29.4717 10.4131 29.4717C8.49923 28.9188 7.30474 27.0558 7.6274 25.1259L8.24178 21.4491C8.35076 20.7972 7.77586 20.2326 7.11066 20.3373L6.41056 24.5271C4.52148 24.2241 3.24097 22.4775 3.55046 20.6265L3.76046 19.3695C1.59709 19.2597 -0.0663806 17.4519 0.0453541 15.3315Z" fill="#FF0084"/>
<path d="M10.558 0.500488L11.5164 4.72929C11.817 6.05589 12.0733 7.39149 12.2845 8.73459C12.2918 8.78079 12.2992 8.82759 12.3065 8.87469C12.6675 11.1679 11.0585 13.3144 8.71756 13.6627C8.68695 13.6672 8.65633 13.6717 8.62603 13.6762C7.21389 13.8865 5.79746 14.0509 4.37429 14.17C2.48644 14.3281 0.0395994 14.533 0.0395994 14.533C-0.0151966 12.5782 1.42389 10.8895 3.39623 10.5937L7.15419 10.03C7.82031 9.93009 8.19103 9.21999 7.88368 8.63199L3.60133 9.27429C3.31174 7.41999 4.61093 5.68689 6.50307 5.40309L7.78787 5.21049C7.22491 3.16029 8.46531 1.05129 10.558 0.500488Z" fill="#FF0084"/>
<path d="M28.1992 5.71491L24.3913 7.91481C23.1969 8.60511 21.9797 9.25641 20.7418 9.86841C20.6989 9.88941 20.656 9.91071 20.6126 9.93231C18.4985 10.9775 15.9182 10.1411 14.8569 8.06691C14.8431 8.03961 14.829 8.01261 14.8152 7.98561C14.1748 6.73431 13.5776 5.46501 13.0223 4.17531C12.2854 2.46501 11.3303 0.247707 11.3303 0.247707C13.2102 -0.407493 15.294 0.411807 16.1906 2.15871L17.8988 5.48721C18.2015 6.07731 19.0054 6.20331 19.4808 5.73501L17.5342 1.94211C19.2442 1.09941 21.3277 1.77441 22.1876 3.45021L22.7716 4.58811C24.5879 3.43071 27.0179 3.93501 28.1992 5.71491Z" fill="#FF0084"/>
<path d="M28.5901 23.7688L25.2785 20.8996C24.2395 19.9996 23.2311 19.0666 22.2546 18.1018C22.2209 18.0685 22.1869 18.0349 22.1526 18.0013C20.4852 16.354 20.4996 13.6906 22.1845 12.0604C22.2065 12.0391 22.2286 12.0178 22.2506 11.9965C23.2669 11.0131 24.3145 10.0642 25.3942 9.14802C26.8265 7.93272 28.6832 6.35742 28.6832 6.35742C29.9 7.90722 29.7488 10.1023 28.3305 11.4778L25.6284 14.0983C25.1493 14.563 25.2754 15.3508 25.8766 15.6493L28.9559 12.6631C30.3022 13.9963 30.2909 16.147 28.9302 17.4664L28.0063 18.3622C29.6909 19.6969 29.9523 22.1176 28.5901 23.7688Z" fill="#FF0084"/>
</g>
<defs>
<clipPath id="clip0_113_544">
<rect width="30" height="30" fill="white"/>
</clipPath>
</defs>
</svg>
